<svg width="200" height="200" viewBox="0 0 200 200" fill="none" xmlns="http://www.w3.org/2000/svg">
<g clip-path="url(#clip0_2_6)">
<rect width="200" height="200" rx="30" fill="url(#paint0_linear_2_6)"/>
<path d="M100.091 157.96C91.664 157.96 83.824 156.573 76.5706 153.8C69.424 150.92 63.184 146.92 57.8506 141.8C52.624 136.573 48.5173 130.547 45.5306 123.72C42.6506 116.787 41.2106 109.213 41.2106 101C41.2106 92.7867 42.6506 85.2667 45.5306 78.44C48.5173 71.5067 52.624 65.48 57.8506 60.36C63.184 55.1333 69.424 51.1333 76.5706 48.36C83.7173 45.48 91.5573 44.04 100.091 44.04C108.517 44.04 116.304 45.48 123.451 48.36C130.597 51.1333 136.784 55.08 142.011 60.2C147.344 65.32 151.451 71.3467 154.331 78.28C157.317 85.2133 158.811 92.7867 158.811 101C158.811 109.213 157.317 116.787 154.331 123.72C151.451 130.653 147.344 136.68 142.011 141.8C136.784 146.92 130.597 150.92 123.451 153.8C116.304 156.573 108.517 157.96 100.091 157.96ZM100.091 147.4C106.811 147.4 112.997 146.28 118.651 144.04C124.411 141.693 129.371 138.44 133.531 134.28C137.797 130.013 141.104 125.107 143.451 119.56C145.797 113.907 146.971 107.72 146.971 101C146.971 94.28 145.797 88.1467 143.451 82.6C141.104 76.9467 137.797 72.04 133.531 67.88C129.371 63.6133 124.411 60.36 118.651 58.12C112.997 55.7733 106.811 54.6 100.091 54.6C93.3706 54.6 87.1306 55.7733 81.3706 58.12C75.6106 60.36 70.5973 63.6133 66.3306 67.88C62.1706 72.04 58.864 76.9467 56.4106 82.6C54.064 88.1467 52.8906 94.28 52.8906 101C52.8906 107.613 54.064 113.747 56.4106 119.4C58.864 125.053 62.1706 130.013 66.3306 134.28C70.5973 138.44 75.6106 141.693 81.3706 144.04C87.1306 146.28 93.3706 147.4 100.091 147.4Z" fill="white"/>
<path d="M75.8849 62.6255C75.7072 62.6599 75.5489 62.7653 75.4443 62.9158C75.3397 63.0664 75.2974 63.2497 75.3272 63.4281C75.3569 63.6066 75.4564 63.7663 75.6042 63.8748C75.7519 63.9832 75.9359 64.0315 76.1151 64.0064C76.1151 64.0064 76.1151 64.0064 76.1151 64.0064C77.6978 63.7851 79.2883 63.7168 80.8396 63.8821C82.0493 64.0097 83.2319 64.2801 84.3587 64.696C88.1202 66.5989 90.641 71.4306 92.0599 75.7603C92.2213 76.2726 92.3928 76.7664 92.5899 77.27C93.0461 78.4274 93.5994 79.5691 94.3911 80.6509C94.7857 81.1871 95.2464 81.7075 95.7856 82.1672C96.0538 82.3965 96.3443 82.6107 96.6348 82.798C96.7789 82.8913 96.9218 82.9773 97.0408 83.0493C97.1471 83.1065 97.2865 83.2258 97.1201 83.0825C100.351 85.1637 102.663 85.984 105.527 87.2064C108.306 88.3198 111.141 89.3324 114.189 89.9546L114.133 89.9437C117.65 90.7797 121.151 91.6042 124.481 92.6761C127.286 93.5942 130.153 94.7542 131.845 96.4586C132.936 97.5707 133.904 98.7253 134.695 99.9707C136.491 102.752 137.396 106.06 137.831 109.596L137.828 109.494C137.979 112.022 138.182 114.55 138.435 117.078C138.6 118.719 138.786 120.359 138.994 122C139.01 122.124 139.065 122.244 139.157 122.332C139.249 122.42 139.37 122.469 139.494 122.469C139.619 122.469 139.739 122.42 139.831 122.332C139.923 122.244 139.978 122.124 139.994 122C140.202 120.359 140.388 118.719 140.553 117.078C140.807 114.55 141.009 112.022 141.16 109.494L141.157 109.391C141.154 105.514 140.336 101.328 138.069 97.8219C137.084 96.2708 135.888 94.8937 134.637 93.6675C131.819 91.0451 128.621 90.0922 125.571 89.1403C121.976 88.0936 118.386 87.4125 114.83 86.714L114.774 86.703C112.057 86.2637 109.3 85.4104 106.615 84.4109C104.047 83.4622 100.893 82.0196 99.1334 81.0688C98.761 80.7273 98.635 80.7016 98.4954 80.6089C98.3641 80.5322 98.2602 80.4716 98.1583 80.4079C97.9568 80.2823 97.777 80.1539 97.6009 80.009C97.2501 79.7208 96.9232 79.3709 96.6217 78.9785C96.0156 78.188 95.5174 77.2473 95.0894 76.2489C94.9035 75.8143 94.7354 75.3797 94.5733 74.9225C92.7014 70.1474 90.2559 65.2959 84.9579 62.898C83.6559 62.5026 82.3078 62.2792 80.9654 62.2157C79.2427 62.1325 77.5368 62.3067 75.8849 62.6255Z" fill="white"/>
<path d="M113.424 92.5546C113.271 92.463 113.084 92.4361 112.907 92.4763C112.73 92.5166 112.576 92.6207 112.478 92.7693C112.38 92.9179 112.345 93.0999 112.377 93.2789C112.41 93.4577 112.508 93.6188 112.653 93.7232C112.653 93.7232 112.653 93.7232 112.653 93.7232C113.069 94.0233 113.495 94.3091 113.925 94.5848C115.539 95.614 117.215 96.5208 118.97 97.3045C120.068 97.7887 121.179 98.2478 122.402 98.5865C124.033 99.04 125.596 99.8338 127.057 100.759C129.212 102.131 131.313 103.76 132.818 105.904C133.538 106.933 134.125 108.055 134.55 109.239C134.71 109.684 134.847 110.136 134.961 110.597C135.003 110.771 135.116 110.923 135.27 111.02C135.424 111.118 135.607 111.153 135.783 111.116C135.958 111.08 136.112 110.976 136.215 110.825C136.318 110.675 136.361 110.491 136.332 110.314C136.332 110.314 136.332 110.314 136.332 110.314C136.243 109.797 136.127 109.286 135.984 108.781C135.604 107.438 135.038 106.15 134.338 104.94C132.888 102.435 130.934 100.147 128.45 98.5641C126.775 97.5046 124.907 96.7203 122.91 96.3484C121.871 96.1583 120.78 95.8294 119.716 95.4491C118.008 94.8316 116.313 94.106 114.694 93.263C114.262 93.0373 113.837 92.8019 113.424 92.5546Z" fill="white"/>
</g>
<defs>
<linearGradient id="paint0_linear_2_6" x1="40" y1="4.03225e-06" x2="187" y2="205.5" gradientUnits="userSpaceOnUse">
<stop offset="0.274038" stop-color="#00C4AC"/>
<stop offset="1" stop-color="#00423A"/>
</linearGradient>
<clipPath id="clip0_2_6">
<rect width="200" height="200" rx="30" fill="white"/>
</clipPath>
</defs>
</svg>
