<svg width="175" height="169" viewBox="0 0 175 169" fill="none" xmlns="http://www.w3.org/2000/svg">
<path d="M21.8737 1.07936C20.8693 1.28374 19.9749 1.89246 19.3837 2.75089C18.7928 3.61052 18.5535 4.64948 18.7219 5.65995C18.8903 6.67041 19.4537 7.57557 20.2916 8.19702C21.1293 8.81726 22.1728 9.10293 23.1891 8.97048C23.1891 8.97048 23.1891 8.97048 23.1891 8.97048C26.6461 8.52535 30.0584 8.41603 33.3354 8.79411C35.8919 9.08657 38.3615 9.67454 40.7137 10.5648C47.3851 13.9318 53.6182 24.8431 56.2895 34.194C56.6533 35.4176 57.0417 36.605 57.494 37.8265C58.544 40.6355 59.8255 43.4628 61.7925 46.2766C62.774 47.6708 63.9508 49.0649 65.3737 50.3298C66.0795 50.9593 66.8589 51.5579 67.6143 52.069C67.9863 52.3223 68.3529 52.5546 68.6044 52.7197C68.73 52.802 68.8186 52.8651 68.7994 52.8612C68.7726 52.8406 68.6507 52.8216 68.1081 52.3097C68.8018 52.986 69.097 53.1434 69.2574 53.2712C69.4435 53.405 69.646 53.5395 69.7539 53.6121C69.883 53.6982 70.0122 53.782 70.1452 53.8664C70.2633 53.9418 70.3634 54.0055 70.4769 54.0762C70.9338 54.36 71.3412 54.6027 71.7244 54.8288C72.5285 55.3004 73.2983 55.7344 74.0726 56.1619C75.616 57.0131 77.157 57.8248 78.703 58.614C81.7922 60.1896 84.9281 61.6861 88.1068 63.0986C94.4984 65.9091 100.963 68.6721 108.361 70.5442L108.064 70.4853C115.947 72.8132 123.712 75.0343 130.933 77.2484C136.998 79.0824 143.084 81.5714 145.72 83.9451C153.598 90.9411 157.643 99.037 159.448 110.353L159.434 109.903C159.97 115.645 160.586 121.387 161.282 127.129C161.734 130.855 162.22 134.581 162.739 138.307C162.878 139.297 163.319 140.246 164.055 140.946C164.79 141.645 165.748 142.038 166.739 142.038C167.729 142.038 168.687 141.645 169.422 140.946C170.158 140.246 170.6 139.297 170.739 138.307C171.258 134.581 171.743 130.855 172.195 127.129C172.891 121.387 173.507 115.645 174.043 109.903L174.029 109.453C174.842 96.3868 169.505 80.1067 159.353 70.3119C151.745 62.8585 144.055 60.5488 136.824 58.1356C128.316 55.5379 119.978 54.3397 111.796 53.1823L111.498 53.1235C105.803 52.5844 99.5678 51.1096 93.5502 49.1212C90.5399 48.1223 87.5219 47.0098 84.5644 45.8174C83.0862 45.2208 81.6126 44.5995 80.1833 43.9625C79.469 43.6439 78.7648 43.321 78.0934 42.9989C77.7761 42.8476 77.4456 42.6852 77.1572 42.5379C77.0257 42.4718 76.8873 42.3988 76.8157 42.3636C76.7843 42.3492 76.7515 42.3319 76.7848 42.3597C76.817 42.4004 76.8618 42.3744 77.4627 42.9534C76.6893 42.2127 76.2923 42.0039 75.9885 41.8021C75.6954 41.6204 75.5044 41.5162 75.3372 41.4238C75.0204 41.251 74.8262 41.1503 74.6396 41.047C74.2776 40.8475 73.9889 40.6683 73.6855 40.4479C73.0869 40.0139 72.475 39.4315 71.8757 38.7166C70.668 37.278 69.5613 35.3759 68.6029 33.2886C68.1856 32.3794 67.8026 31.4581 67.4318 30.4798C62.629 19.1521 57.5828 8.07099 43.6783 1.66997C40.5141 0.71783 37.2363 0.184192 33.9964 0.0424442C29.8374 -0.143827 25.7631 0.297748 21.8737 1.07936Z" fill="#00DFCA"/>
<path d="M99.9083 81.2206C99.3726 80.9354 98.7163 80.8778 98.102 81.033C97.4867 81.1899 96.9636 81.5467 96.6299 82.0526C96.2961 82.5584 96.1737 83.1797 96.2716 83.8071C96.3705 84.4329 96.6816 85.0136 97.1545 85.394C97.1545 85.394 97.1545 85.394 97.1545 85.394C98.0868 86.135 99.0344 86.8478 99.9932 87.5396C103.591 90.1222 107.328 92.4596 111.358 94.372C113.884 95.5543 116.437 96.6798 119.37 97.5403L119.392 97.5451C122.786 98.5879 126.123 100.346 129.272 102.342C133.93 105.308 138.429 108.842 141.803 113.346C143.418 115.508 144.982 117.758 146.211 120.248C146.673 121.182 147.084 122.146 147.43 123.142C147.619 123.703 148.053 124.189 148.595 124.502C149.139 124.814 149.747 124.927 150.326 124.807C150.905 124.688 151.419 124.343 151.795 123.841C152.169 123.339 152.375 122.721 152.326 122.131C152.326 122.131 152.326 122.131 152.326 122.131C152.213 120.905 152.049 119.681 151.823 118.459C151.224 115.211 150.169 111.985 148.559 109.062C145.222 103.008 140.511 97.6458 134.633 93.9005C130.659 91.389 126.205 89.5632 121.37 88.7341L121.392 88.7389C119.176 88.3956 116.727 87.7315 114.344 86.9503C110.508 85.6802 106.59 84.3102 102.843 82.6409C101.845 82.1938 100.861 81.7227 99.9083 81.2206Z" fill="#00DFCA"/>
<path d="M3.46926 24.7622C2.9678 24.5633 2.34137 24.5794 1.76946 24.7479C1.19513 24.9198 0.722248 25.23 0.41319 25.6696C0.104132 26.1092 -0.0277715 26.6591 0.00483704 27.2578C0.0398648 27.8529 0.236634 28.4479 0.593518 28.8524C0.593518 28.8524 0.593518 28.8524 0.593518 28.8524C2.02708 30.4715 3.21098 32.4476 4.88394 33.7323C5.88488 34.5011 6.88476 35.2746 7.88357 36.0526C31.1857 54.2086 52.9431 74.0934 74.4143 94.0462C90.9332 109.401 107.55 124.744 122.705 141.54C128.247 147.683 133.679 153.93 139.037 160.257C139.124 160.36 139.213 160.463 139.302 160.565C141.509 163.104 144.139 165.336 146.51 167.778C146.915 168.195 147.512 168.443 148.129 168.498C148.749 168.55 149.339 168.404 149.808 168.062C150.277 167.721 150.598 167.205 150.739 166.599C150.878 165.995 150.825 165.351 150.553 164.837C150.553 164.837 150.553 164.837 150.553 164.837C148.939 161.801 147.525 158.599 145.63 155.748C145.553 155.634 145.476 155.519 145.398 155.406C140.629 148.453 135.585 141.687 130.34 135.081C116.014 117.037 100.85 99.5044 83.9455 83.7916C61.9645 63.366 37.5057 45.9056 12.7234 29.3473C11.6599 28.6368 10.5972 27.9289 9.53557 27.2237C7.76044 26.044 5.48739 25.5698 3.46926 24.7622Z" fill="#00DFCA"/>
</svg>
